<svg width="800" height="535" xmlns="http://www.w3.org/2000/svg" preserveAspectRatio="xMidYMid meet" version="1.0">
 <metadata>Created by potrace 1.16, written by Peter Selinger 2001-2019</metadata>

 <g>
  <title>Layer 1</title>
  <g id="svg_1" fill="#000000" transform="translate(0 535) scale(0.1 -0.1)">
   <path fill="#666666" id="svg_2" d="m3873.49207,4668.38095c0,-489 0,-496 -20,-496c-11,0 -20,-4 -20,-9c0,-5 9,-11 20,-14c30,-8 27,-83 -5,-147c-14,-27 -25,-58 -25,-70c0,-11 -5,-20 -11,-20c-6,0 -8,-7 -5,-15c3,-9 -1,-18 -8,-21c-16,-6 -41,-87 -32,-102c3,-6 -1,-13 -10,-16c-8,-3 -13,-10 -9,-16c3,-5 -1,-20 -10,-34c-9,-13 -18,-41 -20,-62c-2,-22 -5,-41 -6,-44c-1,-3 -3,-9 -4,-15c-1,-5 -7,-23 -14,-40c-7,-16 -14,-53 -15,-82c-2,-29 -8,-59 -15,-67c-6,-8 -13,-44 -14,-80c-1,-36 -5,-66 -9,-66c-3,0 -9,-8 -11,-17c-3,-10 -6,-2 -7,17c-5,62 -16,100 -30,100c-12,0 -26,-39 -29,-79c-1,-21 -24,2 -26,26c-11,103 -46,92 -60,-20c-6,-46 -14,-64 -42,-95c-43,-45 -67,-97 -84,-179l-13,-63l-38,0c-27,0 -38,4 -38,15c0,8 -4,15 -9,15c-12,0 -34,-57 -27,-69c4,-6 -5,-20 -19,-33c-28,-24 -32,-38 -10,-38c9,0 12,-6 9,-15c-4,-8 -1,-22 6,-30c10,-13 9,-15 -9,-15c-13,0 -26,10 -33,25c-6,14 -15,25 -19,25c-11,0 -30,-76 -30,-122c0,-15 -10,-36 -24,-50c-14,-13 -25,-29 -25,-35c0,-7 -5,-13 -12,-13c-11,0 -29,-15 -70,-57c-29,-30 -52,-29 -76,5l-21,27l-10,-25c-6,-14 -26,-40 -45,-59l-34,-33l-18,33l-17,34l-14,-33c-12,-29 -15,-31 -33,-20c-11,7 -28,29 -37,48l-16,35l-12,-29l-13,-30l-14,30c-9,16 -21,47 -28,69c-7,22 -21,48 -31,58c-11,10 -19,21 -20,25c-6,62 -24,86 -38,51c-9,-23 -10,-23 -10,9c-1,22 4,32 14,32c19,0 19,3 -5,42c-16,27 -20,29 -26,14c-4,-10 -4,-55 -1,-101c3,-46 2,-85 -2,-87c-9,-4 -71,-164 -71,-184c0,-8 -7,-25 -15,-38c-9,-13 -22,-64 -29,-114c-15,-100 -34,-139 -78,-165c-16,-9 -27,-21 -24,-26c3,-5 -1,-14 -9,-21c-21,-17 -19,-30 5,-30c34,0 25,-42 -15,-67c-33,-22 -34,-22 -40,-3c-8,25 -22,26 -30,1c-6,-19 -92,-90 -156,-129l-36,-22l-11,39c-7,21 -12,50 -12,63c0,33 -19,87 -42,120c-10,14 -18,31 -18,37c0,28 -95,251 -106,251c-8,0 -11,6 -8,15c4,9 -3,19 -20,26c-25,12 -41,44 -49,106c-7,48 -17,60 -34,38c-12,-17 -13,-15 -13,18c0,33 3,37 25,37c14,0 25,3 25,6c0,8 -66,74 -73,74c-3,0 -3,-60 0,-134c5,-130 4,-134 -17,-146c-13,-7 -19,-17 -16,-27c4,-9 2,-21 -3,-27c-13,-17 -81,-220 -81,-244c0,-11 -5,-24 -11,-27c-16,-11 -29,-53 -44,-143c-8,-46 -10,-94 -6,-110c9,-32 2,-102 -10,-102c-13,0 -52,-87 -44,-100c3,-5 15,-10 25,-10c28,0 43,-33 28,-64c-6,-14 -17,-26 -25,-26c-7,0 -13,-4 -13,-9c0,-5 -8,-11 -17,-14c-10,-4 -40,-20 -68,-37c-27,-17 -59,-35 -70,-40c-11,-6 -33,-19 -50,-30c-16,-11 -55,-32 -85,-47c-30,-15 -57,-29 -58,-30c-2,-1 -5,-16 -6,-35c-4,-47 -4,-46 -26,-53c-13,-4 -20,-15 -20,-31c0,-19 -12,-32 -52,-57l-51,-32l276,-3l277,-2l2,-33c4,-75 -4,-122 -24,-139c-11,-10 -25,-15 -29,-12c-5,3 -9,-2 -9,-10c0,-8 -10,-20 -21,-27c-12,-6 -44,-33 -73,-60c-30,-29 -60,-49 -73,-49c-17,0 -23,-6 -23,-21c0,-18 4,-20 32,-15c32,6 32,6 8,-6c-14,-7 -31,-18 -38,-25c-7,-7 -22,-13 -33,-13c-12,0 -17,-4 -14,-11c4,-6 -2,-13 -14,-16c-12,-3 -20,-11 -19,-19c2,-7 -1,-13 -7,-13c-5,-1 -10,4 -10,9c0,26 -9,19 -204,-155c-31,-28 -80,-70 -108,-94c-76,-63 -72,-77 25,-84c42,-3 180,-6 306,-6c126,-1 232,-4 236,-6c4,-3 43,-5 86,-6c44,-1 82,-3 86,-6c13,-7 -22,-53 -126,-168c-55,-60 -109,-120 -120,-133l-19,-22l2640,0l2641,0l-15,30c-8,17 -25,38 -38,46c-13,8 -26,26 -29,40c-4,13 -11,24 -17,24c-6,0 -7,4 -4,10c9,15 -14,50 -33,50c-14,0 -15,2 -2,10c13,8 12,10 -1,15c-9,3 -16,11 -17,18c0,7 -3,21 -5,32c-6,26 3,41 14,24c6,-9 9,-10 9,-2c0,9 103,12 415,13c228,0 422,3 430,6c8,4 15,13 15,22c0,8 -167,182 -372,386l-372,371l35,4l34,5l-40,6c-22,4 81,8 230,9l270,1l-45,44c-65,63 -90,100 -90,134c0,25 -8,35 -50,62c-27,18 -50,36 -50,41c0,5 -9,9 -20,9c-11,0 -20,4 -20,9c0,4 -25,25 -55,45c-31,20 -63,44 -73,52c-34,30 -95,74 -103,74c-5,0 -9,11 -9,25c0,21 5,25 30,25c23,0 30,5 30,19c0,10 -7,24 -15,31c-8,7 -15,21 -15,31c0,11 -4,19 -10,19c-11,0 -31,70 -23,82c11,19 -20,203 -43,248c-12,25 -28,69 -34,98c-7,28 -15,52 -20,52c-4,0 -13,26 -19,58c-6,31 -18,70 -26,86c-9,16 -14,35 -11,42c3,7 -2,15 -10,18c-12,5 -15,30 -14,138c1,73 1,139 1,146c-1,12 -71,-59 -71,-72c0,-3 14,-6 30,-6l30,0l0,-76c0,-47 -4,-73 -10,-69c-5,3 -10,21 -10,38c0,35 -15,66 -26,54c-4,-3 -11,-30 -15,-58c-6,-36 -17,-61 -36,-81c-14,-15 -23,-28 -17,-28c5,0 2,-6 -7,-13c-22,-16 -52,-86 -50,-114c0,-13 -4,-22 -12,-20c-6,1 -11,-6 -9,-15c2,-10 -2,-18 -8,-18c-7,0 -10,-6 -7,-12c2,-7 -1,-20 -8,-28c-7,-8 -16,-30 -19,-49c-2,-19 -11,-38 -19,-42c-7,-5 -22,-33 -32,-64c-11,-30 -22,-54 -25,-52c-3,1 -23,11 -45,22c-22,11 -42,23 -45,26c-3,4 -14,8 -25,10c-26,5 -33,49 -11,65c14,10 15,13 1,24c-8,7 -15,17 -15,22c0,5 -5,14 -10,21c-56,66 -57,68 -68,173c-7,57 -18,114 -26,127c-25,39 -65,144 -68,177c-1,17 -6,34 -11,37c-4,3 -5,47 -2,99c4,52 4,94 1,94c-11,0 -66,-43 -66,-52c0,-4 11,-8 25,-8c24,0 25,-3 25,-57c0,-63 -5,-67 -13,-10c-3,21 -7,41 -10,44c-12,11 -27,-10 -27,-37c0,-16 -12,-42 -27,-61c-16,-18 -27,-35 -27,-38c2,-8 -13,-48 -37,-97c-10,-22 -19,-48 -19,-57c0,-9 -4,-17 -8,-17c-12,0 -68,62 -75,83c-7,18 -27,15 -27,-4c0,-5 -15,-25 -34,-44l-34,-33l-18,34c-19,36 -28,41 -39,23c-8,-12 -55,28 -55,47c0,25 -20,25 -30,0c-9,-25 -40,-37 -40,-16c0,6 -6,10 -14,10c-8,0 -17,7 -20,16c-4,9 -13,14 -21,10c-9,-3 -23,3 -32,14c-10,11 -23,20 -30,20c-7,0 -13,5 -13,10c0,6 -20,31 -45,56c-25,24 -45,54 -45,65c0,21 -27,80 -41,89c-7,5 -14,31 -23,80c-12,67 -29,88 -39,50c-6,-24 -57,-29 -57,-5c0,10 -10,15 -30,15c-26,0 -30,4 -35,38c-12,69 -34,124 -72,173c-20,27 -41,49 -45,49c-4,0 -7,12 -7,28c0,48 -19,122 -32,122c-5,0 -9,-4 -9,-10c0,-5 -6,-10 -14,-10c-17,0 -37,-46 -40,-95c-4,-45 -29,-67 -34,-30c-2,14 -6,25 -10,25c-4,0 -8,32 -9,71c-1,39 -7,76 -13,84c-6,7 -10,17 -9,21c1,5 0,11 -1,14c-1,3 -3,27 -5,53c-3,27 -9,54 -14,61c-5,6 -15,42 -21,79c-7,38 -18,74 -25,80c-6,6 -10,19 -7,29c2,10 0,18 -4,18c-5,0 -10,11 -10,24c-1,14 -14,49 -28,80c-14,30 -26,59 -26,65c0,6 -14,40 -32,76c-28,57 -36,65 -60,65l-29,0l22,30c22,29 22,30 4,50c-11,12 -36,30 -56,42c-24,13 -35,26 -32,35c3,7 -2,22 -12,33c-11,13 -18,40 -21,82c-2,35 -5,104 -8,154c-10,172 -52,198 -63,39c-2,-27 -6,-86 -8,-130c-9,-128 -9,-131 -28,-149c-13,-13 -15,-22 -7,-31c8,-9 2,-17 -24,-29c-19,-9 -43,-16 -55,-16c-21,0 -21,2 -21,309c0,378 -6,365 140,321c50,-15 75,-18 93,-11c13,5 57,13 96,17c39,3 71,9 71,13c0,4 -17,15 -37,26c-21,11 -74,54 -118,95c-84,79 -174,150 -237,189l-38,23l0,-496z"/>
  </g>
 </g>
</svg>